<?xml version="1.0" encoding="UTF-8" standalone="no"?>
<svg
   xmlns:dc="http://purl.org/dc/elements/1.1/"
   xmlns:cc="http://creativecommons.org/ns#"
   xmlns:rdf="http://www.w3.org/1999/02/22-rdf-syntax-ns#"
   xmlns:svg="http://www.w3.org/2000/svg"
   xmlns="http://www.w3.org/2000/svg"
   xmlns:sodipodi="http://sodipodi.sourceforge.net/DTD/sodipodi-0.dtd"
   xmlns:inkscape="http://www.inkscape.org/namespaces/inkscape"
   viewBox="0 0 215.33783 164.89999"
   version="1.1"
   id="svg4"
   sodipodi:docname="check.svg"
   width="215.33783"
   height="164.89999"
   inkscape:version="0.92.3 (2405546, 2018-03-11)">
  <metadata
     id="metadata10">
    <rdf:RDF>
      <cc:Work
         rdf:about="">
        <dc:format>image/svg+xml</dc:format>
        <dc:type
           rdf:resource="http://purl.org/dc/dcmitype/StillImage" />
        <dc:title></dc:title>
      </cc:Work>
    </rdf:RDF>
  </metadata>
  <defs
     id="defs8" />
  <sodipodi:namedview
     pagecolor="#ffffff"
     bordercolor="#666666"
     borderopacity="1"
     objecttolerance="10"
     gridtolerance="10"
     guidetolerance="10"
     inkscape:pageopacity="0"
     inkscape:pageshadow="2"
     inkscape:window-width="1920"
     inkscape:window-height="1018"
     id="namedview6"
     showgrid="false"
     inkscape:zoom="0.4609375"
     inkscape:cx="107.6"
     inkscape:cy="82.5"
     inkscape:window-x="-8"
     inkscape:window-y="-8"
     inkscape:window-maximized="1"
     inkscape:current-layer="svg4" />
  <path
     d="M 214.2,19.3 196.6,1.2 C 195.9,0.4 194.8,0 193.8,0 192.7,0 191.7,0.4 191,1.2 L 69,124.1 24.6,79.7 c -0.8,-0.8 -1.8,-1.2 -2.8,-1.2 -1,0 -2,0.4 -2.8,1.2 L 1.2,97.5 c -1.6,1.6 -1.6,4.1 0,5.7 l 56,56 c 3.6,3.6 8,5.7 11.7,5.7 5.3,0 9.9,-3.9 11.6,-5.5 h 0.1 L 214.3,25 c 1.4,-1.7 1.4,-4.2 -0.1,-5.7 z"
     id="path2"
     style="fill:#283e6d;fill-opacity:1"
     inkscape:connector-curvature="0" />
</svg>
