<?xml version="1.0" encoding="UTF-8" standalone="no"?>
<svg
   xmlns:dc="http://purl.org/dc/elements/1.1/"
   xmlns:cc="http://creativecommons.org/ns#"
   xmlns:rdf="http://www.w3.org/1999/02/22-rdf-syntax-ns#"
   xmlns:svg="http://www.w3.org/2000/svg"
   xmlns="http://www.w3.org/2000/svg"
   xmlns:sodipodi="http://sodipodi.sourceforge.net/DTD/sodipodi-0.dtd"
   xmlns:inkscape="http://www.inkscape.org/namespaces/inkscape"
   viewBox="0 0 190.95 190.89999"
   version="1.1"
   id="svg4"
   sodipodi:docname="none.svg"
   width="190.95"
   height="190.89999"
   inkscape:version="0.92.3 (2405546, 2018-03-11)">
  <metadata
     id="metadata10">
    <rdf:RDF>
      <cc:Work
         rdf:about="">
        <dc:format>image/svg+xml</dc:format>
        <dc:type
           rdf:resource="http://purl.org/dc/dcmitype/StillImage" />
        <dc:title></dc:title>
      </cc:Work>
    </rdf:RDF>
  </metadata>
  <defs
     id="defs8" />
  <sodipodi:namedview
     pagecolor="#ffffff"
     bordercolor="#666666"
     borderopacity="1"
     objecttolerance="10"
     gridtolerance="10"
     guidetolerance="10"
     inkscape:pageopacity="0"
     inkscape:pageshadow="2"
     inkscape:window-width="1920"
     inkscape:window-height="1018"
     id="namedview6"
     showgrid="false"
     inkscape:zoom="0.4609375"
     inkscape:cx="95.5"
     inkscape:cy="95.45"
     inkscape:window-x="-8"
     inkscape:window-y="-8"
     inkscape:window-maximized="1"
     inkscape:current-layer="svg4" />
  <path
     d="m 118.1,95.45 68.2,-68.2 c 6.2,-6.2 6.2,-16.4 0,-22.6 -6.2,-6.2 -16.4,-6.2 -22.6,0 L 95.5,72.85 27.3,4.65 c -6.2,-6.2 -16.4,-6.2 -22.6,0 -3.1,3.1 -4.7,7.2 -4.7,11.3 0,4.1 1.6,8.2 4.7,11.3 l 68.2,68.2 -68.2,68.2 c -3.1,3.1 -4.7,7.2 -4.7,11.3 0,4.1 1.6,8.2 4.7,11.3 6.2,6.2 16.4,6.2 22.6,0 l 68.2,-68.2 68.2,68.2 c 6.2,6.2 16.4,6.2 22.6,0 6.2,-6.2 6.2,-16.4 0,-22.6 z"
     id="path2"
     inkscape:connector-curvature="0"
     style="fill:#bababa;fill-opacity:1" />
</svg>
